<?xml version="1.0" encoding="UTF-8" standalone="no" ?>
<!DOCTYPE svg PUBLIC "-//W3C//DTD SVG 1.1//EN" "http://www.w3.org/Graphics/SVG/1.1/DTD/svg11.dtd">
<svg xmlns="http://www.w3.org/2000/svg" xmlns:xlink="http://www.w3.org/1999/xlink" version="1.1" width="1080" height="1080" viewBox="0 0 1080 1080" xml:space="preserve">
<desc>Created with Fabric.js 5.2.4</desc>
<defs>
</defs>
<g transform="matrix(1 0 0 1 540 540)" id="e2c0ac63-76c4-4097-9c37-8037c0352bf5"  >
<rect style="stroke: none; stroke-width: 1; stroke-dasharray: none; stroke-linecap: butt; stroke-dashoffset: 0; stroke-linejoin: miter; stroke-miterlimit: 4; fill: rgb(255,255,255); fill-rule: nonzero; opacity: 1; visibility: hidden;" vector-effect="non-scaling-stroke"  x="-540" y="-540" rx="0" ry="0" width="1080" height="1080" />
</g>
<g transform="matrix(1 0 0 1 540 540)" id="40c03831-c821-46dc-91b8-193c7d237e55"  >
</g>
<g transform="matrix(4.22 0 0 4.22 540 540)"  >
<g style=""   >
		<g transform="matrix(2.81 0 0 2.81 -126.59 -126.59)"  >
<line style="stroke: none; stroke-width: 1; stroke-dasharray: none; stroke-linecap: butt; stroke-dashoffset: 0; stroke-linejoin: miter; stroke-miterlimit: 10; fill: rgb(0,0,0); fill-rule: nonzero; opacity: 1;" vector-effect="non-scaling-stroke"  x1="0" y1="-23.963500000000003" x2="0" y2="23.963500000000003" />
</g>
		<g transform="matrix(2.81 0 0 2.81 -0.14 56.13)"  >
<path style="stroke: none; stroke-width: 1; stroke-dasharray: none; stroke-linecap: butt; stroke-dashoffset: 0; stroke-linejoin: miter; stroke-miterlimit: 10; fill: rgb(102,103,107); fill-rule: nonzero; opacity: 1;" vector-effect="non-scaling-stroke"  transform=" translate(-45, -65.03)" d="M 45 90 C 44.442 90 43.989 89.548 43.989 88.989 L 43.989 41.062 C 43.989 40.504 44.442 40.050999999999995 45 40.050999999999995 C 45.558 40.050999999999995 46.011 40.504 46.011 41.062 L 46.011 88.989 C 46.011 89.548 45.558 90 45 90 z" stroke-linecap="round" />
</g>
		<g transform="matrix(2.81 0 0 2.81 -0.14 -68.9)"  >
<circle style="stroke: none; stroke-width: 1; stroke-dasharray: none; stroke-linecap: butt; stroke-dashoffset: 0; stroke-linejoin: miter; stroke-miterlimit: 10; fill: rgb(242,63,56); fill-rule: nonzero; opacity: 1;" vector-effect="non-scaling-stroke"  cx="0" cy="0" r="20.531" />
</g>
		<g transform="matrix(2.81 0 0 2.81 19.74 -88.78)"  >
<circle style="stroke: none; stroke-width: 1; stroke-dasharray: none; stroke-linecap: butt; stroke-dashoffset: 0; stroke-linejoin: miter; stroke-miterlimit: 10; fill: rgb(255,158,154); fill-rule: nonzero; opacity: 1;" vector-effect="non-scaling-stroke"  cx="0" cy="0" r="5.056" />
</g>
</g>
</g>
</svg>